<svg width="1332" height="169" viewBox="0 0 1332 169" fill="none" xmlns="http://www.w3.org/2000/svg">
<path d="M52.4965 143.537C41.7714 143.537 32.5704 141.791 24.8935 138.298C17.3295 134.806 11.4025 129.905 7.11243 123.595C2.93529 117.173 0.564478 109.625 0 100.949L29.4658 99.5973C30.0303 103.879 31.2721 107.54 33.1913 110.582C35.1106 113.624 37.6507 115.934 40.8118 117.511C44.0858 119.089 48.0936 119.877 52.8352 119.877C56.6736 119.877 59.8912 119.427 62.4878 118.525C65.1973 117.624 67.2294 116.272 68.5841 114.469C70.0518 112.667 70.7856 110.413 70.7856 107.709C70.7856 105.231 70.1647 103.09 68.9228 101.287C67.7939 99.372 65.4795 97.682 61.9797 96.2173C58.5929 94.64 53.4561 93.119 46.5695 91.6543C35.9573 89.401 27.3772 86.8097 20.8293 83.8803C14.3942 80.8383 9.65258 77.064 6.6044 72.5573C3.66911 67.938 2.20147 62.0793 2.20147 54.9813C2.20147 47.658 4.06425 41.236 7.7898 35.7153C11.5154 30.1947 16.8779 25.9133 23.8774 22.8713C30.877 19.7167 39.2313 18.1393 48.9403 18.1393C59.3267 18.1393 68.0197 19.942 75.0192 23.5473C82.1316 27.04 87.6635 31.8847 91.6149 38.0813C95.5662 44.278 97.937 51.4323 98.7273 59.5443L69.6002 60.8963C69.2615 56.953 68.189 53.573 66.3827 50.7563C64.6892 47.9397 62.3184 45.7427 59.2702 44.1653C56.335 42.588 52.7787 41.7993 48.6016 41.7993C43.4084 41.7993 39.2877 42.926 36.2395 45.1793C33.3042 47.4327 31.8366 50.362 31.8366 53.9673C31.8366 56.784 32.514 59.0937 33.8687 60.8963C35.3364 62.699 37.7072 64.2763 40.9811 65.6283C44.2551 66.8677 48.8274 68.0507 54.698 69.1773C66.2133 71.318 75.3014 74.1347 81.9623 77.6273C88.6231 81.12 93.3647 85.2323 96.1871 89.9643C99.0095 94.6963 100.421 100.161 100.421 106.357C100.421 114.019 98.5015 120.666 94.663 126.299C90.8246 131.82 85.2927 136.101 78.0674 139.143C70.955 142.073 62.4313 143.537 52.4965 143.537Z" fill="white"/>
<path d="M139.585 140.833V44.8413H104.023V20.8433H204.783V44.8413H169.221V140.833H139.585Z" fill="white"/>
<path d="M266.463 143.537C256.077 143.537 247.045 141.678 239.368 137.96C231.804 134.13 225.934 128.722 221.757 121.736C217.58 114.751 215.491 106.526 215.491 97.0623V20.6743H244.957V97.0623C244.957 104.16 246.763 109.681 250.376 113.624C254.101 117.568 259.464 119.539 266.463 119.539C273.463 119.539 278.769 117.568 282.382 113.624C286.107 109.681 287.97 104.16 287.97 97.0623V20.6743H317.436V97.0623C317.436 106.526 315.347 114.751 311.17 121.736C306.993 128.722 301.066 134.13 293.389 137.96C285.825 141.678 276.85 143.537 266.463 143.537Z" fill="white"/>
<path d="M340.408 140.833V20.8433H383.252C403.122 20.8433 418.363 26.0823 428.975 36.5603C439.7 46.9257 445.063 61.7413 445.063 81.0073C445.063 100.161 439.813 114.92 429.314 125.285C418.814 135.651 403.799 140.833 384.268 140.833H340.408ZM369.874 116.835H383.252C394.09 116.835 402.049 113.906 407.13 108.047C412.21 102.189 414.75 93.119 414.75 80.8383C414.75 68.5577 412.21 59.488 407.13 53.6293C402.049 47.7707 394.09 44.8413 383.252 44.8413H369.874V116.835Z" fill="white"/>
<path d="M460.636 140.833V20.8433H547.001V44.8413H490.101V68.6703H544.969V92.6683H490.101V116.835H548.356V140.833H460.636Z" fill="white"/>
<path d="M566.31 140.833V20.8433H597.3L641.329 96.0483V20.8433H670.795V140.833H639.636L595.776 68.8393V140.833H566.31Z" fill="white"/>
<path d="M715.42 140.833V44.8413H679.857V20.8433H780.617V44.8413H745.055V140.833H715.42Z" fill="white"/>
<path d="M791.385 140.833V20.8433H820.851V77.2893L808.15 68.3323H874.194L861.493 77.2893V20.8433H890.959V140.833H861.493V83.7113L874.194 92.4993H808.15L820.851 83.7113V140.833H791.385Z" fill="white"/>
<path d="M964.84 143.537C954.454 143.537 945.422 141.678 937.745 137.96C930.181 134.13 924.311 128.722 920.134 121.736C915.956 114.751 913.868 106.526 913.868 97.0623V20.6743H943.334V97.0623C943.334 104.16 945.14 109.681 948.753 113.624C952.478 117.568 957.841 119.539 964.84 119.539C971.84 119.539 977.146 117.568 980.759 113.624C984.484 109.681 986.347 104.16 986.347 97.0623V20.6743H1015.81V97.0623C1015.81 106.526 1013.72 114.751 1009.55 121.736C1005.37 128.722 999.443 134.13 991.766 137.96C984.202 141.678 975.227 143.537 964.84 143.537Z" fill="white"/>
<path d="M1038.79 140.833V20.8433H1087.39C1102.51 20.8433 1114.14 23.491 1122.27 28.7863C1130.51 33.969 1134.63 42.1937 1134.63 53.4603C1134.63 58.4177 1133.62 62.699 1131.59 66.3043C1129.67 69.9097 1126.79 72.7827 1122.95 74.9233C1119.22 76.9513 1114.59 78.247 1109.06 78.8103C1119.11 79.599 1126.73 82.5283 1131.92 87.5983C1137.12 92.5557 1139.71 99.2593 1139.71 107.709C1139.71 118.976 1135.65 127.313 1127.52 132.721C1119.39 138.129 1107.82 140.833 1092.81 140.833H1038.79ZM1068.25 117.68H1091.11C1096.64 117.68 1101.16 116.554 1104.66 114.3C1108.27 112.047 1110.08 108.611 1110.08 103.991C1110.08 99.2593 1108.33 95.7667 1104.83 93.5133C1101.33 91.1473 1096.76 89.9643 1091.11 89.9643H1068.25V117.68ZM1068.25 69.6843H1086.37C1091.9 69.6843 1096.36 68.614 1099.75 66.4733C1103.25 64.3327 1105 61.1217 1105 56.8403C1105 52.3337 1103.31 49.0663 1099.92 47.0383C1096.53 45.0103 1092.02 43.9963 1086.37 43.9963H1068.25V69.6843Z" fill="white"/>
<path d="M1247.33 14.0833C1270.56 14.0833 1289.66 31.2298 1289.66 52.8125C1289.66 62.2272 1286.03 70.7969 1280 77.4583H1310.83C1312.7 77.4583 1314.5 78.2002 1315.82 79.5208C1317.14 80.8414 1317.89 82.6324 1317.89 84.5C1317.89 107.681 1300.71 126.75 1279.08 126.75C1269.65 126.75 1261.07 123.124 1254.38 117.117V147.875C1254.38 149.743 1253.64 151.534 1252.32 152.854C1250.99 154.175 1249.2 154.917 1247.33 154.917C1224.1 154.917 1204.99 137.77 1204.99 116.188C1204.99 106.78 1208.63 98.2101 1214.64 91.5417H1183.82C1181.95 91.5417 1180.16 90.7998 1178.83 89.4792C1177.51 88.1586 1176.77 86.3676 1176.77 84.5C1176.77 61.3188 1193.95 42.25 1215.58 42.25C1225.01 42.25 1233.6 45.8765 1240.27 51.89V21.125C1240.27 19.2574 1241.02 17.4664 1242.34 16.1458C1243.66 14.8252 1245.46 14.0833 1247.33 14.0833Z" fill="#2436FF"/>
</svg>
