<svg width="284" height="36" viewBox="0 0 284 36" fill="none" xmlns="http://www.w3.org/2000/svg">
<path d="M11.16 30.576C8.88 30.576 6.924 30.204 5.292 29.46C3.684 28.716 2.424 27.672 1.512 26.328C0.624 24.96 0.12 23.352 0 21.504L6.264 21.216C6.384 22.128 6.648 22.908 7.056 23.556C7.464 24.204 8.004 24.696 8.676 25.032C9.372 25.368 10.224 25.536 11.232 25.536C12.048 25.536 12.732 25.44 13.284 25.248C13.86 25.056 14.292 24.768 14.58 24.384C14.892 24 15.048 23.52 15.048 22.944C15.048 22.416 14.916 21.96 14.652 21.576C14.412 21.168 13.92 20.808 13.176 20.496C12.456 20.16 11.364 19.836 9.9 19.524C7.644 19.044 5.82 18.492 4.428 17.868C3.06 17.22 2.052 16.416 1.404 15.456C0.78 14.472 0.468 13.224 0.468 11.712C0.468 10.152 0.864 8.784 1.656 7.608C2.448 6.432 3.588 5.52 5.076 4.872C6.564 4.2 8.34 3.864 10.404 3.864C12.612 3.864 14.46 4.248 15.948 5.016C17.46 5.76 18.636 6.792 19.476 8.112C20.316 9.432 20.82 10.956 20.988 12.684L14.796 12.972C14.724 12.132 14.496 11.412 14.112 10.812C13.752 10.212 13.248 9.744 12.6 9.408C11.976 9.072 11.22 8.904 10.332 8.904C9.228 8.904 8.352 9.144 7.704 9.624C7.08 10.104 6.768 10.728 6.768 11.496C6.768 12.096 6.912 12.588 7.2 12.972C7.512 13.356 8.016 13.692 8.712 13.98C9.408 14.244 10.38 14.496 11.628 14.736C14.076 15.192 16.008 15.792 17.424 16.536C18.84 17.28 19.848 18.156 20.448 19.164C21.048 20.172 21.348 21.336 21.348 22.656C21.348 24.288 20.94 25.704 20.124 26.904C19.308 28.08 18.132 28.992 16.596 29.64C15.084 30.264 13.272 30.576 11.16 30.576Z" fill="black"/>
<path d="M29.6738 30V9.552H22.1138V4.44H43.5338V9.552H35.9738V30H29.6738Z" fill="black"/>
<path d="M56.6463 30.576C54.4383 30.576 52.5183 30.18 50.8863 29.388C49.2783 28.572 48.0303 27.42 47.1423 25.932C46.2543 24.444 45.8103 22.692 45.8103 20.676V4.404H52.0743V20.676C52.0743 22.188 52.4583 23.364 53.2263 24.204C54.0183 25.044 55.1583 25.464 56.6463 25.464C58.1343 25.464 59.2623 25.044 60.0303 24.204C60.8223 23.364 61.2183 22.188 61.2183 20.676V4.404H67.4823V20.676C67.4823 22.692 67.0383 24.444 66.1503 25.932C65.2623 27.42 64.0023 28.572 62.3703 29.388C60.7623 30.18 58.8543 30.576 56.6463 30.576Z" fill="black"/>
<path d="M72.3659 30V4.44H81.4739C85.6979 4.44 88.9379 5.556 91.1939 7.788C93.4739 9.996 94.6139 13.152 94.6139 17.256C94.6139 21.336 93.4979 24.48 91.2659 26.688C89.0339 28.896 85.8419 30 81.6899 30H72.3659ZM78.6299 24.888H81.4739C83.7779 24.888 85.4699 24.264 86.5499 23.016C87.6299 21.768 88.1699 19.836 88.1699 17.22C88.1699 14.604 87.6299 12.672 86.5499 11.424C85.4699 10.176 83.7779 9.552 81.4739 9.552H78.6299V24.888Z" fill="black"/>
<path d="M97.9245 30V4.44H116.285V9.552H104.188V14.628H115.853V19.74H104.188V24.888H116.573V30H97.9245Z" fill="black"/>
<path d="M120.389 30V4.44H126.977L136.337 20.46V4.44H142.601V30H135.977L126.653 14.664V30H120.389Z" fill="black"/>
<path d="M152.088 30V9.552H144.528V4.44H165.948V9.552H158.388V30H152.088Z" fill="black"/>
<path d="M168.237 30V4.44H174.501V16.464L171.801 14.556H185.841L183.141 16.464V4.44H189.405V30H183.141V17.832L185.841 19.704H171.801L174.501 17.832V30H168.237Z" fill="black"/>
<path d="M205.111 30.576C202.903 30.576 200.983 30.18 199.351 29.388C197.743 28.572 196.495 27.42 195.607 25.932C194.719 24.444 194.275 22.692 194.275 20.676V4.404H200.539V20.676C200.539 22.188 200.923 23.364 201.691 24.204C202.483 25.044 203.623 25.464 205.111 25.464C206.599 25.464 207.727 25.044 208.495 24.204C209.287 23.364 209.683 22.188 209.683 20.676V4.404H215.947V20.676C215.947 22.692 215.503 24.444 214.615 25.932C213.727 27.42 212.467 28.572 210.835 29.388C209.227 30.18 207.319 30.576 205.111 30.576Z" fill="black"/>
<path d="M220.831 30V4.44H231.163C234.379 4.44 236.851 5.004 238.579 6.132C240.331 7.236 241.207 8.988 241.207 11.388C241.207 12.444 240.991 13.356 240.559 14.124C240.151 14.892 239.539 15.504 238.723 15.96C237.931 16.392 236.947 16.668 235.771 16.788C237.907 16.956 239.527 17.58 240.631 18.66C241.735 19.716 242.287 21.144 242.287 22.944C242.287 25.344 241.423 27.12 239.695 28.272C237.967 29.424 235.507 30 232.315 30H220.831ZM227.095 25.068H231.955C233.131 25.068 234.091 24.828 234.835 24.348C235.603 23.868 235.987 23.136 235.987 22.152C235.987 21.144 235.615 20.4 234.871 19.92C234.127 19.416 233.155 19.164 231.955 19.164H227.095V25.068ZM227.095 14.844H230.947C232.123 14.844 233.071 14.616 233.791 14.16C234.535 13.704 234.907 13.02 234.907 12.108C234.907 11.148 234.547 10.452 233.827 10.02C233.107 9.588 232.147 9.372 230.947 9.372H227.095V14.844Z" fill="black"/>
<path d="M265.164 3C270.102 3 274.164 6.6525 274.164 11.25C274.164 13.2555 273.392 15.081 272.111 16.5H278.664C279.062 16.5 279.443 16.658 279.725 16.9393C280.006 17.2206 280.164 17.6022 280.164 18C280.164 22.938 276.512 27 271.914 27C269.91 27 268.085 26.2275 266.664 24.948V31.5C266.664 31.8978 266.506 32.2794 266.225 32.5607C265.943 32.842 265.562 33 265.164 33C260.226 33 256.164 29.3475 256.164 24.75C256.164 22.746 256.937 20.9205 258.216 19.5H251.664C251.266 19.5 250.885 19.342 250.603 19.0607C250.322 18.7794 250.164 18.3978 250.164 18C250.164 13.062 253.817 9 258.414 9C260.42 9 262.245 9.7725 263.664 11.0535V4.5C263.664 4.10218 263.822 3.72064 264.103 3.43934C264.385 3.15804 264.766 3 265.164 3Z" fill="#5D75FF"/>
</svg>
